Coordinates
version=1
nRows=43
nColumns=12
inDegrees=yes

Units are S.I. units (second, meters, Newtons, ...)
Angles are in degrees

endheader
time	SC_y	SC_z	SC_x	AC_y	AC_z	AC_x	GH_y	GH_z	GH_yy	EL_x	PS_y
       0.0              -19.03          1.643          25.84          68.12         -3.139         -17.79          123.3          39.06          177.2          8.288          48.28
  0.005998              -19.03          1.645          25.84          68.12         -3.141         -17.78          123.3          39.06          177.2          8.295          48.27
     0.012              -19.04          1.649          25.84          68.12         -3.143         -17.78          123.3          39.06          177.2          8.302          48.27
   0.01799              -19.05          1.652          25.84          68.12         -3.146         -17.77          123.2          39.06          177.2           8.31          48.27
   0.02399              -19.05          1.656          25.83          68.12         -3.149         -17.77          123.2          39.06          177.2          8.318          48.26
   0.02999              -19.06          1.659          25.83          68.11         -3.152         -17.76          123.2          39.06          177.1          8.327          48.26
   0.03599              -19.07          1.663          25.83          68.11         -3.155         -17.76          123.2          39.06          177.1          8.336          48.25
   0.04198              -19.08          1.668          25.83          68.11         -3.159         -17.75          123.2          39.06          177.1          8.346          48.25
   0.04798              -19.08          1.672          25.82          68.11         -3.162         -17.74          123.1          39.06          177.1          8.357          48.24
   0.05398              -19.09          1.677          25.82           68.1         -3.166         -17.74          123.1          39.07          177.1          8.368          48.24
   0.05998               -19.1          1.683          25.82           68.1         -3.171         -17.73          123.1          39.07          177.1          8.381          48.23
   0.06597              -19.12          1.688          25.81           68.1         -3.175         -17.72          123.1          39.07          177.1          8.394          48.23
   0.07197              -19.13          1.695          25.81          68.09          -3.18         -17.71          123.0          39.07          177.1          8.408          48.22
   0.07797              -19.14          1.701          25.81          68.09         -3.185          -17.7          123.0          39.07          177.1          8.423          48.21
   0.08397              -19.15          1.708           25.8          68.08         -3.191         -17.69          123.0          39.07          177.1           8.44          48.21
   0.08997              -19.17          1.716           25.8          68.08         -3.198         -17.68          122.9          39.08          177.1          8.458           48.2
   0.09596              -19.18          1.725          25.79          68.07         -3.204         -17.67          122.9          39.08          177.1          8.478          48.19
     0.102               -19.2          1.734          25.78          68.07         -3.212         -17.66          122.8          39.08          177.1          8.499          48.18
     0.108              -19.22          1.744          25.78          68.06          -3.22         -17.64          122.8          39.08          177.1          8.523          48.17
     0.114              -19.24          1.755          25.77          68.06         -3.229         -17.63          122.7          39.09          177.1          8.548          48.15
      0.12              -19.26          1.768          25.76          68.05         -3.239         -17.61          122.7          39.09          177.0          8.577          48.14
     0.126              -19.29          1.781          25.75          68.04         -3.249         -17.59          122.6          39.09          177.0          8.608          48.13
    0.1319              -19.32          1.796          25.75          68.03         -3.261         -17.57          122.6           39.1          177.0          8.642          48.11
    0.1379              -19.35          1.812          25.73          68.02         -3.274         -17.55          122.5           39.1          177.0           8.68          48.09
    0.1439              -19.38          1.831          25.72          68.01         -3.289         -17.52          122.4           39.1          177.0          8.722          48.07
    0.1499              -19.42          1.851          25.71           68.0         -3.305         -17.49          122.3          39.11          177.0          8.769          48.05
    0.1559              -19.46          1.874           25.7          67.98         -3.324         -17.46          122.2          39.12          176.9          8.822          48.03
    0.1619              -19.51          1.899          25.68          67.97         -3.344         -17.43          122.1          39.12          176.9          8.881           48.0
    0.1679              -19.57          1.928          25.66          67.95         -3.367         -17.39          121.9          39.13          176.9          8.948          47.97
    0.1739              -19.63          1.961          25.64          67.93         -3.394         -17.34          121.8          39.14          176.8          9.024          47.93
    0.1799               -19.7          1.999          25.62          67.91         -3.424         -17.29          121.6          39.15          176.8          9.111          47.89
    0.1859              -19.78          2.042          25.59          67.88         -3.458         -17.23          121.4          39.16          176.8           9.21          47.85
    0.1919              -19.87          2.092          25.56          67.85         -3.498         -17.16          121.1          39.17          176.7          9.325          47.79
    0.1979              -19.98           2.15          25.52          67.81         -3.545         -17.08          120.9          39.19          176.7          9.459          47.73
    0.2039              -20.11          2.218          25.48          67.77         -3.599         -16.98          120.5           39.2          176.6          9.615          47.66
    0.2099              -20.26          2.297          25.43          67.72         -3.663         -16.87          120.2          39.22          176.5          9.799          47.57
    0.2159              -20.44          2.392          25.37          67.66         -3.739         -16.74          119.7          39.25          176.4          10.02          47.47
    0.2219              -20.65          2.506          25.29          67.59          -3.83         -16.58          119.2          39.28          176.3          10.28          47.35
    0.2279              -20.91          2.644          25.21          67.51          -3.94         -16.39          118.5          39.31          176.1           10.6           47.2
    0.2339              -21.23          2.812           25.1          67.41         -4.074         -16.15          117.7          39.36          176.0          10.99          47.02
    0.2399              -21.62          3.019          24.97          67.28          -4.24         -15.86          116.7          39.41          175.8          11.46          46.79
    0.2459               -22.1          3.278           24.8          67.12         -4.447          -15.5          115.5          39.48          175.5          12.06          46.52
    0.2519              -22.72          3.604          24.59          66.92         -4.708         -15.04          114.0          39.56          175.2          12.81          46.17
